<svg width="130" height="41" viewBox="0 0 130 41" fill="none" xmlns="http://www.w3.org/2000/svg">
<path d="M49.2878 23.0648C49.2878 23.9756 49.1188 24.7784 48.7761 25.4685C48.4381 26.1587 47.9733 26.7314 47.3958 27.1915C46.8137 27.6516 46.133 27.999 45.3536 28.2337C44.5743 28.4685 43.7433 28.5812 42.856 28.5812C42.2551 28.5812 41.7011 28.5342 41.1847 28.4356C40.6683 28.337 40.2176 28.2197 39.8232 28.0788C39.4288 27.938 39.1002 27.7971 38.8373 27.6422C38.5744 27.492 38.3819 27.3558 38.2645 27.2384C38.1472 27.1211 38.0674 26.9568 38.0157 26.7361C37.9641 26.5155 37.9406 26.2009 37.9406 25.7878C37.9406 25.5108 37.95 25.276 37.9688 25.0883C37.9876 24.9005 38.0157 24.7502 38.058 24.6329C38.1002 24.5155 38.1519 24.4357 38.2176 24.384C38.2833 24.3371 38.3631 24.3089 38.4523 24.3089C38.5791 24.3089 38.7528 24.384 38.9828 24.5296C39.2129 24.6751 39.504 24.8394 39.8608 25.0178C40.2176 25.1962 40.6448 25.3605 41.1424 25.5061C41.6401 25.6516 42.2128 25.7267 42.8654 25.7267C43.2926 25.7267 43.6776 25.6751 44.0203 25.5718C44.3583 25.4685 44.6494 25.323 44.8842 25.1352C45.1189 24.9474 45.302 24.7127 45.4287 24.4357C45.5555 24.1587 45.6165 23.8488 45.6165 23.5108C45.6165 23.1165 45.5086 22.7784 45.2926 22.4967C45.0766 22.2151 44.7996 21.9662 44.4522 21.7456C44.1095 21.5249 43.7152 21.3184 43.2785 21.1259C42.8419 20.9334 42.3865 20.7315 41.9218 20.5156C41.457 20.2996 41.0063 20.0555 40.565 19.7832C40.1284 19.5109 39.734 19.1823 39.3913 18.802C39.0486 18.4217 38.7669 17.971 38.5509 17.4546C38.335 16.9335 38.227 16.3138 38.227 15.5908C38.227 14.7598 38.3819 14.0274 38.6918 13.3983C39.0016 12.7692 39.4148 12.2434 39.9406 11.8256C40.4617 11.4077 41.0814 11.0979 41.795 10.8913C42.5086 10.6848 43.2598 10.5815 44.0579 10.5815C44.471 10.5815 44.8795 10.6143 45.2926 10.6754C45.7057 10.7364 46.0907 10.8209 46.4475 10.9289C46.8043 11.0369 47.1235 11.1589 47.4005 11.2904C47.6775 11.4265 47.8606 11.5345 47.9498 11.6237C48.039 11.7129 48.1001 11.788 48.1329 11.8537C48.1658 11.9148 48.1893 11.9993 48.2127 12.1026C48.2362 12.2059 48.2503 12.3373 48.2597 12.4922C48.2691 12.6472 48.2738 12.8443 48.2738 13.0744C48.2738 13.3326 48.2691 13.5532 48.255 13.7316C48.2409 13.91 48.2174 14.0603 48.1893 14.173C48.1564 14.2903 48.1141 14.3748 48.0531 14.4265C47.9968 14.4781 47.917 14.5063 47.8184 14.5063C47.7198 14.5063 47.5649 14.4452 47.3489 14.3185C47.1329 14.1917 46.87 14.0556 46.5555 13.91C46.2409 13.7645 45.8794 13.6284 45.4663 13.5063C45.0532 13.3842 44.6025 13.3232 44.1095 13.3232C43.7245 13.3232 43.3912 13.3702 43.1048 13.464C42.8185 13.5579 42.579 13.6894 42.3865 13.8537C42.1941 14.018 42.0532 14.2199 41.9593 14.4499C41.8654 14.6847 41.8185 14.9288 41.8185 15.187C41.8185 15.572 41.9218 15.9053 42.133 16.187C42.3443 16.4687 42.626 16.7175 42.9781 16.9382C43.3302 17.1588 43.7339 17.3654 44.1799 17.5579C44.6259 17.7504 45.086 17.9522 45.5508 18.1682C46.0156 18.3841 46.471 18.6283 46.9217 18.9006C47.3677 19.1729 47.7667 19.5015 48.1141 19.8818C48.4616 20.262 48.7432 20.708 48.9592 21.2245C49.1799 21.7597 49.2878 22.3653 49.2878 23.0648Z" fill="#F4A300"/>
<path d="M62.2828 26.8911C62.2828 27.1493 62.2735 27.3652 62.25 27.5436C62.2265 27.7173 62.1936 27.8582 62.1514 27.9662C62.1044 28.0741 62.0528 28.154 61.9824 28.2009C61.9167 28.2479 61.8415 28.276 61.7617 28.276H53.0389C52.7431 28.276 52.4943 28.1868 52.2924 28.0131C52.0905 27.8394 51.9919 27.553 51.9919 27.1587V12.0181C51.9919 11.6237 52.0905 11.342 52.2924 11.1636C52.4943 10.9852 52.7431 10.9007 53.0389 10.9007H61.7101C61.7899 10.9007 61.8603 10.9242 61.926 10.9665C61.9871 11.0134 62.0434 11.0885 62.0857 11.2012C62.1326 11.3139 62.1655 11.4547 62.1843 11.6284C62.2077 11.8021 62.2171 12.0228 62.2171 12.2951C62.2171 12.5439 62.2077 12.7599 62.1843 12.9336C62.1608 13.1073 62.1279 13.2481 62.0857 13.3561C62.0387 13.4641 61.9871 13.5439 61.926 13.5908C61.865 13.6378 61.7899 13.666 61.7101 13.666H55.5083V17.9053H60.757C60.8369 17.9053 60.912 17.9288 60.9777 17.9804C61.0434 18.0321 61.0998 18.1072 61.1467 18.2105C61.1937 18.3138 61.2265 18.4499 61.2453 18.6283C61.2688 18.802 61.2782 19.0133 61.2782 19.2668C61.2782 19.525 61.2688 19.741 61.2453 19.91C61.2218 20.079 61.189 20.2151 61.1467 20.3184C61.0998 20.4217 61.0481 20.4968 60.9777 20.5391C60.912 20.586 60.8369 20.6048 60.757 20.6048H55.5083V25.5061H61.7617C61.8415 25.5061 61.9167 25.5296 61.9824 25.5812C62.0481 25.6329 62.1044 25.708 62.1514 25.816C62.1983 25.9239 62.2312 26.0648 62.25 26.2385C62.2688 26.4122 62.2828 26.6329 62.2828 26.8911Z" fill="#F4A300"/>
<path d="M77.2873 16.1776C77.2873 17.1542 77.1371 18.018 76.8319 18.7691C76.5268 19.5203 76.0855 20.1541 75.5033 20.6705C74.9212 21.1869 74.2076 21.5766 73.3625 21.8442C72.5174 22.1118 71.5222 22.248 70.3766 22.248H68.926V27.7925C68.926 27.8817 68.8978 27.9615 68.8368 28.0319C68.7804 28.1023 68.6818 28.1633 68.5504 28.2056C68.4142 28.2525 68.2358 28.2854 68.0152 28.3136C67.7898 28.3417 67.5035 28.3558 67.156 28.3558C66.818 28.3558 66.5316 28.3417 66.3016 28.3136C66.0716 28.2854 65.8931 28.2525 65.757 28.2056C65.6209 28.1586 65.527 28.1023 65.4753 28.0319C65.4237 27.9615 65.3955 27.8817 65.3955 27.7925V12.1636C65.3955 11.7411 65.5035 11.4266 65.7241 11.2153C65.9448 11.004 66.2312 10.9007 66.588 10.9007H70.6818C71.0949 10.9007 71.4846 10.9148 71.8555 10.9477C72.2264 10.9806 72.6724 11.0463 73.1888 11.1496C73.7099 11.2528 74.2357 11.4406 74.7662 11.7223C75.2967 11.9993 75.7521 12.3514 76.1277 12.7739C76.5033 13.2012 76.7897 13.6941 76.9869 14.2622C77.1887 14.8349 77.2873 15.4734 77.2873 16.1776ZM73.5972 16.4359C73.5972 15.8255 73.4893 15.3279 73.2733 14.9335C73.0573 14.5392 72.7944 14.2481 72.4799 14.0603C72.1653 13.8725 71.8367 13.7551 71.494 13.7035C71.1513 13.6566 70.7945 13.6284 70.4283 13.6284H68.926V19.5203H70.5081C71.0715 19.5203 71.5456 19.4452 71.9259 19.2903C72.3062 19.14 72.616 18.9241 72.8602 18.6518C73.0996 18.3795 73.2874 18.0508 73.4094 17.6706C73.5362 17.295 73.5972 16.8819 73.5972 16.4359Z" fill="#F4A300"/>
<path d="M89.5688 26.7972C89.5688 27.0648 89.5594 27.2901 89.5359 27.4732C89.5125 27.6563 89.4796 27.8065 89.4373 27.9286C89.3904 28.0507 89.3387 28.1352 89.2683 28.1915C89.2026 28.2432 89.1228 28.2713 89.0336 28.2713H81.076C80.7802 28.2713 80.5314 28.1821 80.3295 28.0084C80.1276 27.8347 80.0291 27.5483 80.0291 27.154V11.3796C80.0291 11.2904 80.0572 11.2106 80.1183 11.1402C80.1746 11.0698 80.2732 11.0087 80.4046 10.9665C80.5408 10.9195 80.7192 10.8867 80.9492 10.8585C81.1793 10.8303 81.461 10.8162 81.8037 10.8162C82.1511 10.8162 82.4375 10.8303 82.6628 10.8585C82.8882 10.8867 83.0666 10.9195 83.198 10.9665C83.3342 11.0134 83.4281 11.0698 83.4844 11.1402C83.5407 11.2106 83.5736 11.2904 83.5736 11.3796V25.3512H89.0383C89.1275 25.3512 89.2073 25.3747 89.273 25.4263C89.3387 25.478 89.3951 25.5578 89.442 25.6657C89.489 25.7784 89.5218 25.924 89.5406 26.107C89.5594 26.2995 89.5688 26.5296 89.5688 26.7972Z" fill="#F4A300"/>
<path d="M106.794 19.3889C106.794 20.8301 106.615 22.1165 106.259 23.2526C105.902 24.3888 105.367 25.3512 104.662 26.1446C103.954 26.938 103.08 27.5389 102.038 27.9568C100.996 28.3746 99.7893 28.5812 98.4184 28.5812C97.0663 28.5812 95.888 28.4028 94.8833 28.0507C93.8786 27.6986 93.0382 27.1587 92.3669 26.431C91.6955 25.708 91.1932 24.7831 90.8552 23.6658C90.5219 22.5484 90.3528 21.2245 90.3528 19.694C90.3528 18.2903 90.5312 17.0274 90.888 15.9007C91.2448 14.7786 91.7801 13.8209 92.4843 13.0369C93.1932 12.2481 94.0664 11.6472 95.1086 11.2247C96.1509 10.8021 97.3621 10.5956 98.7377 10.5956C100.052 10.5956 101.216 10.7693 102.221 11.1214C103.226 11.4688 104.071 12.0087 104.747 12.7317C105.423 13.4547 105.935 14.3702 106.277 15.4781C106.62 16.5814 106.794 17.8818 106.794 19.3889ZM103.09 19.5766C103.09 18.6659 103.019 17.8349 102.874 17.0884C102.728 16.342 102.489 15.7035 102.141 15.1683C101.799 14.6378 101.339 14.2246 100.766 13.9336C100.193 13.6425 99.4794 13.4969 98.6203 13.4969C97.7518 13.4969 97.0288 13.6613 96.4466 13.9852C95.8645 14.3138 95.395 14.7504 95.0382 15.295C94.6814 15.8396 94.4279 16.4781 94.2777 17.2058C94.1321 17.9335 94.057 18.7081 94.057 19.5203C94.057 20.4686 94.1274 21.3231 94.273 22.0789C94.4138 22.8348 94.6579 23.4827 94.996 24.0179C95.334 24.5531 95.7941 24.9662 96.3668 25.2479C96.9396 25.5296 97.6579 25.6704 98.5264 25.6704C99.3949 25.6704 100.118 25.5108 100.7 25.1869C101.282 24.8629 101.752 24.4263 102.109 23.8723C102.465 23.3184 102.719 22.6705 102.869 21.9334C103.015 21.1916 103.09 20.4076 103.09 19.5766Z" fill="#F4A300"/>
<path d="M130 27.7878C130 27.877 129.977 27.9568 129.925 28.0272C129.873 28.0976 129.784 28.1587 129.657 28.2009C129.526 28.2479 129.357 28.2807 129.141 28.3089C128.925 28.3371 128.653 28.3511 128.324 28.3511C128 28.3511 127.732 28.3371 127.516 28.3089C127.301 28.2807 127.132 28.2479 127.005 28.2009C126.878 28.154 126.789 28.0976 126.737 28.0272C126.686 27.9568 126.657 27.877 126.657 27.7878V13.6566H126.629L121.596 27.7784C121.559 27.8957 121.502 27.9896 121.423 28.0648C121.343 28.1399 121.23 28.2009 121.094 28.2479C120.953 28.2948 120.78 28.323 120.564 28.3371C120.348 28.3511 120.089 28.3558 119.784 28.3558C119.479 28.3558 119.221 28.3464 119.005 28.323C118.789 28.2995 118.615 28.2666 118.474 28.215C118.334 28.168 118.226 28.107 118.146 28.0319C118.066 27.9615 118.01 27.877 117.986 27.7784L113.127 13.6566H113.099V27.7925C113.099 27.8817 113.075 27.9615 113.024 28.0319C112.977 28.1023 112.883 28.1634 112.747 28.2056C112.611 28.2526 112.442 28.2854 112.23 28.3136C112.019 28.3418 111.751 28.3558 111.418 28.3558C111.094 28.3558 110.827 28.3418 110.611 28.3136C110.395 28.2854 110.226 28.2526 110.094 28.2056C109.963 28.1587 109.874 28.1023 109.827 28.0319C109.78 27.9615 109.752 27.8817 109.752 27.7925V12.3139C109.752 11.8585 109.874 11.5064 110.113 11.2669C110.352 11.0275 110.676 10.9054 111.08 10.9054H113.39C113.803 10.9054 114.155 10.9383 114.451 11.004C114.747 11.0698 115 11.1824 115.216 11.3374C115.432 11.4923 115.611 11.6989 115.751 11.9571C115.892 12.2106 116.019 12.5298 116.127 12.9054L119.887 23.2526H119.939L123.831 12.9289C123.948 12.5533 124.075 12.2341 124.211 11.9758C124.352 11.7176 124.512 11.5064 124.695 11.3467C124.878 11.1871 125.094 11.0698 125.347 11.004C125.596 10.9383 125.887 10.9054 126.221 10.9054H128.596C128.836 10.9054 129.047 10.9383 129.221 10.9993C129.394 11.0604 129.54 11.1543 129.648 11.2763C129.761 11.3984 129.845 11.5439 129.901 11.7176C129.958 11.8913 129.991 12.0932 129.991 12.3139V27.7878H130Z" fill="#F4A300"/>
<path fill-rule="evenodd" clip-rule="evenodd" d="M19.3306 23.1193C18.0912 21.833 18.1851 21.8471 17.9973 21.6874C17.8893 21.5982 17.7344 21.6029 17.6311 21.6968C16.5748 22.6593 15.5936 23.5466 14.4481 24.5888C14.3589 24.6686 14.3589 24.8095 14.4481 24.8893C15.6687 26.016 16.7767 27.0395 17.8846 28.0676C18.8565 29.9502 18.8283 31.8093 17.772 33.6544C16.2509 35.3773 14.4105 36.0769 12.1899 35.5464C11.9599 35.4619 11.7392 35.3492 11.5279 35.2224C11.3355 35.1051 11.1336 34.9971 10.9411 34.875C10.3543 34.5182 10.1195 33.7952 10.3543 33.152C10.8754 31.7436 10.3261 31.3023 8.37307 31.2976C7.14305 31.2929 5.91302 31.2882 4.68769 31.307C4.17127 31.3164 3.54217 31.2647 3.49053 32.0065C3.45297 32.5558 3.17598 33.3445 3.88019 33.5558C4.73933 33.8093 4.81914 34.5229 5.13839 35.1004C6.49517 37.5839 8.44819 39.2975 11.251 39.9547C13.5326 40.551 15.7204 40.4665 17.7579 39.3115C18.0677 39.1848 18.6921 38.8139 19.1851 38.4665C19.1851 38.4665 19.1851 38.4665 19.1898 38.4665C19.3447 38.3585 19.4856 38.2505 19.6029 38.1566C24.4714 34.2976 24.3916 27.5653 19.3306 23.1193ZM19.0677 38.0581C19.0677 38.0534 19.0677 38.0534 19.063 38.0487C19.0677 38.0487 19.0677 38.0534 19.0677 38.0581C19.0677 38.0534 19.0677 38.0534 19.0677 38.0581Z" fill="#E7EEF2"/>
<path fill-rule="evenodd" clip-rule="evenodd" d="M8.26974 17.204C9.50916 18.4903 9.41526 18.4762 9.60305 18.6359C9.71103 18.7251 9.86596 18.7204 9.96924 18.6265C11.0256 17.6641 12.0068 16.7767 13.1523 15.7345C13.2415 15.6547 13.2415 15.5139 13.1523 15.434C11.9316 14.3073 10.8237 13.2838 9.71572 12.2557C8.74391 10.3731 8.77208 8.51398 9.8284 6.66894C11.3495 4.94597 13.1898 4.24645 15.4105 4.77696C15.6405 4.86146 15.8612 4.97414 16.0724 5.1009C16.2649 5.21826 16.4668 5.32624 16.6593 5.44831C17.2461 5.80511 17.4808 6.5281 17.2461 7.17128C16.725 8.57971 17.2743 9.02102 19.2273 9.02571C20.4573 9.0304 21.6873 9.0351 22.9127 9.01632C23.4291 9.00693 24.0582 9.05857 24.1098 8.3168C24.1474 7.76752 24.4244 6.9788 23.7202 6.76753C22.861 6.51402 22.7812 5.80041 22.462 5.22296C21.1099 2.73474 19.1522 1.02116 16.3494 0.36389C14.0678 -0.232344 11.88 -0.147838 9.84248 1.00707C9.53263 1.13383 8.90823 1.50472 8.41528 1.85213C8.41528 1.85213 8.41528 1.85213 8.41058 1.85213C8.25566 1.96011 8.11481 2.06808 7.99744 2.16198C3.12429 6.02576 3.2088 12.758 8.26974 17.204ZM8.52795 2.26526C8.52795 2.26996 8.52795 2.26996 8.53265 2.27465C8.53265 2.27465 8.52795 2.26996 8.52795 2.26526Z" fill="#E7EEF2"/>
<path fill-rule="evenodd" clip-rule="evenodd" d="M29.7953 14.4012C29.8422 14.143 29.7343 13.9082 29.6028 13.6735C29.584 13.6219 29.5699 13.5843 29.5699 13.5843C29.5699 13.5843 29.5652 13.589 29.5559 13.5937C29.5512 13.5843 29.5418 13.5702 29.5371 13.5608C29.5371 13.5608 27.1944 15.7486 26.8 16.0115C26.7766 16.0256 26.7578 16.035 26.7437 16.035C26.4996 16.0725 26.1099 15.6594 26.1099 15.6594L24.3869 13.7158L23.2837 12.4388L24.6921 14.0209L27.6122 11.3261C27.6122 11.3261 27.4385 11.1571 27.0583 11.0773C26.5465 10.9693 25.7484 10.9459 25.2789 10.9599C24.4902 10.9834 22.6827 11.5327 22.5372 11.575L21.894 10.8379L21.1006 11.4904C21.1006 11.4904 21.0818 11.9364 21.0443 12.1102C21.0067 12.2839 20.8753 12.6923 20.8753 12.6923V12.697C20.6358 13.1336 20.0631 14.1618 19.8471 14.481C19.5701 14.8848 18.8284 15.7486 18.434 16.0819C18.0349 16.4152 17.65 16.6124 17.65 16.6124L0.654963 24.7766C0.654963 24.7766 -0.448304 25.955 0.208961 27.0676C1.19955 28.7484 2.69249 28.1615 2.69249 28.1615L16.2838 21.0443C16.2322 21.1147 18.8377 19.6922 19.1147 19.5513C19.3917 19.4105 21.7485 19.0396 22.232 18.88C22.7203 18.7204 25.7437 19.0584 25.9033 19.0208C26.0583 18.9833 27.5418 19.1429 27.7531 19.0396C27.9596 18.9316 28.3775 18.5467 28.6028 18.2133C28.8282 17.88 29.185 17.1241 29.185 17.1241C29.185 17.1241 29.8141 14.9223 29.8094 14.5702C29.8094 14.5139 29.8047 14.4575 29.7953 14.4012ZM2.53286 27.3681C1.90846 27.6873 1.13852 27.4385 0.819279 26.8141C0.500036 26.1897 0.753553 25.4245 1.37326 25.1052C1.99297 24.786 2.76291 25.0348 3.07746 25.6592C3.40139 26.2836 3.15727 27.0489 2.53286 27.3681Z" fill="#E7EEF2"/>
</svg>
